<?xml version="1.0" encoding="utf-8"?>
<!-- Generator: Adobe Illustrator 18.1.1, SVG Export Plug-In . SVG Version: 6.00 Build 0)  -->
<svg version="1.1" id="Layer_1" xmlns="http://www.w3.org/2000/svg" xmlns:xlink="http://www.w3.org/1999/xlink" x="0px" y="0px"
	 viewBox="-231.9 323.5 591.1 170.1" enable-background="new -231.9 323.5 591.1 170.1" xml:space="preserve">
<path fill="#4FA542" d="M-14.3,446c0.4,0.7-6.3,3.6-7.2,4c-7.1,3.3-14.7,4.4-22.5,3.6c-11.3-1.1-21-5.8-28.4-14.5
	c-8.7-10.2-12-22.2-10.5-35.4c1.4-12.9,7.2-23.6,17.8-31.3c6.8-5,14.6-7.6,23-7.9c16.5-0.6,29.7,5.7,38.7,19.7
	c6.1,9.4,7.9,19.9,6.7,30.9c-1.2,10.5-5.6,19.5-13.1,27C-11.2,443.5-12.8,444.7-14.3,446z M-17.5,439.3c8.1-6.9,12.1-15.9,13-26.3
	c0.5-5.8,0-11.6-1.9-17.2c-2.5-7.4-6.6-13.6-13-18.1c-6.9-4.9-14.7-6.7-23.1-6.1c-12,0.9-21.1,6.5-27.3,16.7
	c-4.9,8-6.4,16.8-5.3,25.9c1,9.2,4.5,17.4,11.5,23.6c11.3,10.1,24.4,11.5,38.3,6.3C-24,443.6-17.6,439.4-17.5,439.3z"/>
<path fill="#4FA542" d="M122.8,380.7c0,0.6,0,1.2,0,1.8c0,22.2,0,44.4,0,66.6c0,1.2-0.3,2.4-0.8,3.4c-0.8,1.5-2.3,1.7-3.9,1.4
	c-1.4-0.3-2.5-1.6-2.7-3.1c-0.1-0.6-0.1-1.2-0.1-1.8c0-26,0-52,0-78c0-0.6,0-1.1,0-1.7c0.1-1.8,1-2.9,2.5-3.4
	c1.7-0.6,3.1-0.2,4.3,1.4c2.7,3.5,5.4,7.1,8,10.6c15.2,20.2,30.4,40.3,45.7,60.5c0.2,0.3,0.4,0.6,0.6,0.9c0.1-0.1,0.3-0.1,0.4-0.2
	c0-0.6,0.1-1.2,0.1-1.9c0-22,0-43.9,0-65.9c0-0.9,0-1.7,0.2-2.6c0.3-1.9,1.8-3.1,3.7-3.1c1.7,0,3.1,1.2,3.4,3.1
	c0.1,0.8,0.2,1.7,0.2,2.6c0,26.1,0,52.1,0,78.2c0,3.1-1.4,4.6-4,4.6c-1.5,0-2.3-0.9-3.1-1.9c-3.6-4.7-7.1-9.4-10.7-14.1
	c-13.7-18.1-27.5-36.2-41.2-54.3c-0.8-1-1.6-2.1-2.4-3.1C123.1,380.7,122.9,380.7,122.8,380.7z"/>
<path fill="#4FA542" d="M310.2,427.6c-0.2,3,0.7,5.5,1.8,8c3.8,8.5,11.9,12.6,20.9,12.2c6.6-0.2,12-2.9,16.3-7.8
	c0.2-0.3,0.5-0.5,0.7-0.8c1.4-1.4,3.3-1.5,4.7-0.4c1.3,1.1,1.6,3.1,0.5,4.5c-1.4,1.7-2.9,3.4-4.6,4.8c-5.2,4.2-11.3,6.2-17.9,6.3
	c-10.8,0.2-19.7-3.7-25.7-13c-9.4-14.6-4.8-35.7,11.7-43.6c12-5.7,27.2-2.8,34.9,9.3c3.3,5.2,4.8,10.9,4.7,17c0,1.8-1.1,2.9-2.9,3.2
	c-0.6,0.1-1.3,0.1-2,0.1c-13.7,0-27.4,0-41.1,0C311.6,427.6,310.9,427.6,310.2,427.6z M350.8,420.8c-0.7-9.9-8.2-19.2-20-19
	c-12.9,0.1-20,10.6-20.3,19C323.9,420.8,337.3,420.8,350.8,420.8z"/>
<path fill="#4FA542" d="M201.6,425.1c-0.3-16.6,12.3-29.6,29-29.9c17-0.3,29.8,12.1,30.1,29.3c0.3,16.5-11.9,30-29.2,30.2
	C214.6,454.8,201.9,442.3,201.6,425.1z M252.9,425.3c-0.1-1.5-0.1-2.8-0.3-4c-0.2-1.4-0.5-2.8-0.9-4.1c-4.6-14.7-22.6-20-34.3-10.2
	c-7.1,6-9.8,16.3-6.7,25.9c4,12.5,18,18.6,29.8,12.8C249,441.5,252.5,434.1,252.9,425.3z"/>
<path fill="#4FA542" d="M65.4,444.1c-1.5,1.7-2.7,3.2-4.1,4.5c-5.3,4.8-11.7,6.3-18.7,5.9c-7.9-0.4-14.1-3.8-18.4-10.5
	c-2.6-4.1-3.9-8.6-4-13.3c-0.1-10.2-0.1-20.3-0.1-30.5c0-1.8,0.6-3.3,2.4-4.1c1.5-0.7,3-0.4,4.2,0.7c1.2,1.1,1.3,2.6,1.3,4.1
	c0,8.9-0.1,17.7,0.1,26.6c0.1,3,0.4,6,1.2,8.8c1.5,5.6,5.4,9.1,11.1,10.5c5.4,1.3,10.7,1,15.6-1.8c6.2-3.6,9.2-9.3,9.4-16.3
	c0.3-9.3,0.1-18.7,0.1-28.1c0-2.6,1-4.1,3.1-4.6c2.3-0.6,4.6,0.9,4.8,3.3c0.1,0.6,0.1,1.2,0.1,1.8c0,15.9,0,31.8,0,47.6
	c0,0.7,0,1.4-0.1,2.1c-0.2,1.8-1.7,3.1-3.5,3.2c-1.8,0.1-3.5-0.9-3.9-2.6c-0.3-1.1-0.3-2.2-0.3-3.3
	C65.4,446.9,65.4,445.7,65.4,444.1z"/>
<path fill="#4FA542" d="M285.7,427.4c0,7.2,0,14.4,0,21.5c0,1-0.1,2.1-0.4,3c-0.7,1.6-2.4,2.4-4.1,2.1c-1.7-0.3-2.8-1.5-3.1-3.3
	c-0.1-0.8-0.1-1.6-0.1-2.4c0-14.4,0-28.7,0-43.1c0-1.5-0.4-2-2-2c-3.3,0.1-6.7,0.1-10-0.1c-2.5-0.2-3.8-3.2-2.1-5.1
	c0.7-0.7,2-1.2,3.1-1.3c3.1-0.2,6.3-0.1,9.4,0c1.2,0,1.6-0.4,1.5-1.6c-0.1-5.1,0-10.2,0-15.3c0-0.9,0.1-2,0.4-2.8
	c0.6-1.7,2.4-2.4,4.4-2.1c1.5,0.2,2.9,1.6,2.9,3.2c0.1,4.1,0.1,8.3,0.1,12.4c0,1.6,0.1,3.1,0,4.7c-0.1,1.1,0.4,1.5,1.5,1.5
	c3.7-0.1,7.5,0,11.2,0c1.5,0,2.8,0.7,3.4,2.1c0.5,1.2,0.4,2.6-0.7,3.3c-0.9,0.6-2.1,1-3.2,1.1c-3.4,0.1-6.8,0-10.2,0.1
	c-2.1,0-2.1,0-2.1,2.1C285.7,412.7,285.7,420.1,285.7,427.4z"/>
<path fill="#4FA542" d="M98.3,424.8c0,8,0,16,0,24c0,0.8-0.1,1.6-0.3,2.4c-0.5,1.9-2.1,3.1-4,2.9c-1.8-0.1-3.3-1.5-3.5-3.4
	c-0.1-0.5-0.1-1-0.1-1.5c0-16.2,0-32.4,0-48.5c0-1.9,0.3-3.5,2.2-4.4c2.8-1.4,5.7,0.6,5.7,4.1c0,7.2,0,14.4,0,21.5
	C98.3,422.8,98.3,423.8,98.3,424.8z"/>
<path fill="#4FA542" d="M94,374.5c2.6,0,4.8,2.1,4.8,4.7c0,2.6-2.2,4.8-4.9,4.8c-2.6,0-4.7-2.2-4.7-4.9
	C89.2,376.5,91.3,374.5,94,374.5z"/>
<path fill="#4FA542" d="M10.8,439.1l-0.8,0.1c0,0.8,0,1.6-0.2,2.4c-1,3.8-4.7,5.6-8.4,4.6c-4.6-1.2-7.5-4.9-9.8-8.8l-2.8-5.5
	c-3.5-6.7-8.6-12-16-13.9c-4-1-8.2-0.7-12.3,0.2l-0.3,1c2.2-0.1,4.5-0.2,6.6,0.3c6.3,1.6,11.2,8.6,13.8,14.2l2.3,4.8
	c2.7,5.8,6.3,13.2,13.1,14.9c6.8,1.7,12.9-2,14.7-8.8C11.1,442.8,11.1,441.1,10.8,439.1z"/>
<g>
	<line fill="none" stroke="#4FA542" stroke-miterlimit="10" x1="-138.3" y1="392.5" x2="-138.3" y2="430.2"/>
	<g>
		<g>
			<path fill="#FFFFFF" d="M-135.9,460.4c0,1-0.8,1.8-1.8,1.8h-85.1c-1,0-1.8-0.8-1.8-1.8V353.7c0-1,0.8-1.8,1.8-1.8h85.1
				c1,0,1.8,0.8,1.8,1.8L-135.9,460.4L-135.9,460.4z"/>
		</g>
	</g>
	<path fill="#4FA542" d="M-190,429.2c-1.3-0.9-3-0.6-3.9,0.7l-11.6,16.7l-5-5.4c-1-1.2-2.8-1.2-3.9-0.1c-1.1,1-1.2,2.8-0.1,3.9
		l7.3,7.9c0.1,0.1,0.2,0.1,0.3,0.2s0.1,0.1,0.2,0.2c0.1,0.1,0.2,0.1,0.3,0.1c0.1,0.1,0.2,0.1,0.3,0.1c0.3,0.1,0.6,0.2,0.9,0.2l0,0
		l0,0l0,0c0.3,0,0.6-0.1,0.9-0.1c0.1,0,0.1-0.1,0.2-0.1c0.3-0.1,0.6-0.3,0.8-0.5c0,0,0,0,0.1,0l0.1-0.1c0.1-0.1,0.3-0.3,0.3-0.4
		l13.5-19.5C-188.4,431.8-188.7,430.1-190,429.2z"/>
	<path fill="#4FA542" d="M-172.7,391.7h-37.6c-1,0-1.9-0.8-1.9-1.9c0-1,0.8-1.9,1.9-1.9h37.6c1,0,1.9,0.8,1.9,1.9
		C-170.8,390.8-171.7,391.7-172.7,391.7z"/>
	<path fill="#4FA542" d="M-172.6,381.8h-37.6c-1,0-1.9-0.8-1.9-1.9s0.8-1.9,1.9-1.9h37.6c1,0,1.9,0.8,1.9,1.9
		C-170.8,380.9-171.6,381.8-172.6,381.8z"/>
	<path fill="#4FA542" d="M-172.7,371.7h-37.6c-1,0-1.9-0.8-1.9-1.9s0.8-1.9,1.9-1.9h37.6c1,0,1.9,0.8,1.9,1.9
		S-171.7,371.7-172.7,371.7z"/>
	<path fill="#4FA542" d="M-172.8,421.2h-37.6c-1,0-1.9-0.8-1.9-1.9s0.8-1.9,1.9-1.9h37.6c1,0,1.9,0.8,1.9,1.9
		C-170.9,420.4-171.7,421.2-172.8,421.2z"/>
	<path fill="#4FA542" d="M-172.7,401.5h-37.6c-1,0-1.9-0.8-1.9-1.9s0.8-1.9,1.9-1.9h37.6c1,0,1.9,0.8,1.9,1.9
		S-171.7,401.5-172.7,401.5z"/>
	<path fill="#4FA542" d="M-172.6,411.4h-37.6c-1,0-1.9-0.8-1.9-1.9s0.8-1.9,1.9-1.9h37.6c1,0,1.9,0.8,1.9,1.9
		C-170.8,410.5-171.6,411.4-172.6,411.4z"/>
	<g>
		<g>
			
				<linearGradient id="SVGID_1_" gradientUnits="userSpaceOnUse" x1="114.957" y1="299.8464" x2="140.5096" y2="299.8464" gradientTransform="matrix(2.9423 0 0 2.9423 -515.4885 -475.5332)">
				<stop  offset="0" style="stop-color:#FFFFFF"/>
				<stop  offset="0.4306" style="stop-color:#FEFEFE"/>
				<stop  offset="0.5858" style="stop-color:#FAFCF9"/>
				<stop  offset="0.6963" style="stop-color:#F3F7F0"/>
				<stop  offset="0.7857" style="stop-color:#E9F1E3"/>
				<stop  offset="0.8622" style="stop-color:#DBE8D1"/>
				<stop  offset="0.9289" style="stop-color:#CBDEBB"/>
				<stop  offset="0.9745" style="stop-color:#BBD4A8"/>
			</linearGradient>
			<path fill="url(#SVGID_1_)" d="M-102.1,457.8c0,1-0.8,2.1-1.7,2.4l-71.7,25.9c-1,0.3-1.7-0.2-1.7-1.2V328.5c0-1,0.8-1.5,1.7-1.2
				l71.7,25.5c1,0.3,1.7,1.4,1.7,2.4V457.8L-102.1,457.8z"/>
		</g>
	</g>
	<path fill="#4FA542" d="M-116.1,404.3c0-0.2-0.1-0.4-0.1-0.6c-0.1-0.5-0.2-1-0.3-1.4c0-0.1-0.1-0.3-0.5-0.3s-0.8,0.1-1.4,0.3
		c-1.5,0.4-2.9,1.2-4.6,2.4c-0.1,0.1-0.1,0.1-0.3,0.1c-0.1,0.1-0.1,0.1-0.2,0.1c-0.1,0-0.3-0.1-0.3-0.1c-0.2-0.1-0.3-0.4-0.3-0.6
		V404c0.3-1.2,0.3-2.4,0.3-3.8c-0.1-1.4-0.3-2.8-0.6-4c-0.6-2.4-1.8-4.8-3.4-7.4c-1.7-2.8-3.8-5.3-6.2-7.7l-0.3-0.3
		c-1.2-1.2-2.3-2.4-3.9-3h-0.3l-0.1,0.1c-0.1,0.1-0.3,0.1-0.4,0.2c-0.7,0.4-1.3,0.9-1.9,1.3c-3.1,2.9-5.8,6.1-8,9.6
		c-1.5,2.4-2.5,4.7-3.2,6.9c-0.4,1.5-0.7,3-0.7,4.6c0,1,0,1.9,0.1,2.7c0.1,0.2,0.1,0.4,0.1,0.6l0.1,0.4c0.1,0.2-0.1,0.4-0.3,0.6
		c-0.1,0.1-0.2,0.1-0.3,0.1s-0.2,0-0.3-0.1l-0.3-0.2c-1.8-1.2-3.3-2-4.9-2.4c-0.3-0.1-0.6-0.1-0.8-0.1h-0.1c-0.4,0-0.5,0.1-0.6,0.6
		c-0.1,0.4-0.1,0.8-0.2,1.3l-0.1,0.5c0,0.1,0,0.3-0.1,0.4v0.1v1.5v0.1c0,0.1,0.1,0.2,0.1,0.3c0.1,2.1,0.5,4.3,1.3,6.6
		c0.6,1.7,1.2,3,1.8,4.1c1.5,2.6,3.7,4.8,6.4,6.4c2.5,1.6,5.3,2.7,8.3,3.3c0.7,0.1,1.5,0.2,2.2,0.3c1.2,2.6,2.9,4.8,5.5,6.2
		c2,1.1,4.2,1.5,6.4,1.6l0.3-0.5c-1.2-0.3-2.4-0.5-3.3-1.1c-2.1-1.2-3.6-3.7-4.5-6.2c3.1-0.3,6.2-1.1,9-2.5c3.4-1.7,6-4.2,8-7.3
		c1-1.5,1.7-3.2,2.1-4.9l0.1-0.4c0.3-1,0.5-2.1,0.7-3.1c0.1-0.5,0.1-1,0.2-1.5c0-0.3,0.1-0.5,0.1-0.8c0-0.1,0-0.2,0.1-0.3l0,0v-2.1
		L-116.1,404.3z"/>
</g>
</svg>
